<?xml version="1.0" encoding="UTF-8"?>
<svg version="1.1" xmlns="http://www.w3.org/2000/svg" width="174" height="194">
<path d="M0 0 C57.42 0 114.84 0 174 0 C174 64.02 174 128.04 174 194 C116.58 194 59.16 194 0 194 C0 129.98 0 65.96 0 0 Z " fill="#18415D" transform="translate(0,0)"/>
<path d="M0 0 C12.49755929 2.83937948 22.31385338 14.24513386 31 23 C31.75539063 23.74636719 32.51078125 24.49273437 33.2890625 25.26171875 C55.52134063 48.3490845 64.27264845 78.23205419 64.0625 109.625 C64.05798828 110.91535156 64.05347656 112.20570313 64.04882812 113.53515625 C64.03714295 116.69015375 64.02076044 119.84505137 64 123 C61 123 61 123 59.08984375 121.1640625 C58.37957031 120.32617188 57.66929688 119.48828125 56.9375 118.625 C56.13054687 117.70589844 55.32359375 116.78679687 54.4921875 115.83984375 C53.66976562 114.90269531 52.84734375 113.96554688 52 113 C38.09954588 97.48031735 19.95762907 86.65139862 1.3125 77.75 C0.64790771 77.43248779 -0.01668457 77.11497559 -0.70141602 76.7878418 C-10.25977714 72.34565099 -19.868064 69.35492665 -30.1875 67.25 C-31.75854492 66.91935547 -31.75854492 66.91935547 -33.36132812 66.58203125 C-35.90614748 66.04750298 -38.45223659 65.52027943 -41 65 C-37.66532192 58.8048034 -34.06334552 52.86946616 -30.1875 47 C-29.04213167 45.25185024 -27.89764355 43.50312355 -26.75390625 41.75390625 C-25.84729248 40.36776123 -25.84729248 40.36776123 -24.92236328 38.95361328 C-21.46010686 33.63403261 -18.0432722 28.28540981 -14.625 22.9375 C-13.97168701 21.91591797 -13.31837402 20.89433594 -12.64526367 19.84179688 C-8.42149198 13.23338656 -4.20830012 6.61827175 0 0 Z " fill="#F4C946" transform="translate(62,31)"/>
<path d="M0 0 C57.42 0 114.84 0 174 0 C174 6.27 174 12.54 174 19 C116.58 19 59.16 19 0 19 C0 12.73 0 6.46 0 0 Z " fill="#E7C442" transform="translate(0,175)"/>
<path d="M0 0 C3.83843658 3.57580671 6.70826201 7.28077668 9.375 11.8125 C9.76002686 12.463396 10.14505371 13.11429199 10.54174805 13.78491211 C17.17646264 25.26432629 21.74898364 37.14714462 25 50 C25.28746094 51.07507812 25.57492188 52.15015625 25.87109375 53.2578125 C28.43210505 63.03621928 29.18136832 72.16951986 29.1875 82.25 C29.19974609 83.32507813 29.21199219 84.40015625 29.22460938 85.5078125 C29.22654297 86.54164062 29.22847656 87.57546875 29.23046875 88.640625 C29.23457764 89.57422852 29.23868652 90.50783203 29.24291992 91.46972656 C28.98984243 94.10580211 28.33889219 95.73811129 27 98 C26.79246094 97.1028125 26.58492187 96.205625 26.37109375 95.28125 C19.50274987 67.46302039 4.58727818 44.61719701 -16 25 C-6.44692737 6.44692737 -6.44692737 6.44692737 0 0 Z " fill="#F3C946" transform="translate(104,7)"/>
<path d="M0 0 C6.12897841 2.47496009 11.03954308 7.07908617 14 13 C14.73149191 19.79242488 14.80719153 25.69197147 10.59765625 31.30859375 C5.90879149 36.27259971 1.83099711 38.29537699 -5.0625 38.5625 C-11.62221873 38.23245126 -15.29613299 36.90259221 -19.75390625 32.1171875 C-23.59276165 27.14716125 -24.89221857 22.91771576 -24.5234375 16.6484375 C-23.42245708 11.07780525 -20.52878582 7.41692344 -16.4375 3.625 C-10.93487585 -0.0434161 -6.59911858 -0.9625782 0 0 Z " fill="#1A425D" transform="translate(76,58)"/>
<path d="M0 0 C0.33 0 0.66 0 1 0 C1.0580966 3.9166043 1.09362893 7.83309763 1.125 11.75 C1.14175781 12.86117187 1.15851563 13.97234375 1.17578125 15.1171875 C1.18222656 16.18710938 1.18867188 17.25703125 1.1953125 18.359375 C1.20578613 19.34389648 1.21625977 20.32841797 1.22705078 21.34277344 C0.99489618 24.05973111 0.39036273 25.68112513 -1 28 C-1.33 26.02 -1.66 24.04 -2 22 C-1.34 22 -0.68 22 0 22 C0 14.74 0 7.48 0 0 Z " fill="#B9A43F" transform="translate(132,77)"/>
</svg>
